PathFileType	4	(X/Y/Z)	Patient4_TMGait_0pt8_01_right_36.trc.trc
DataRate	CameraRate	NumFrames	NumMarkers	Units	OrigDataRate	OrigDataStartFrame	OrigNumFrames
85.365853658537	85.365853658537	6	33	mm	85.365853658537	89	       141
Frame#	Time	Sacral			L.Shoulder			Chest			R.Shoulder			Neck			R.ASIS			L.ASIS			R.Thigh.Superior			R.Thigh.Lateral			R.Thigh.Inferior			R.Patella			L.Thigh.Superior			L.Thigh.Lateral			L.Thigh.Inferior			L.Patella			L.Shank.Superior			L.Shank.Lateral			L.Shank.Inferior			R.Shank.Superior			R.Shank.Lateral			R.Shank.Inferior			R.Heel			R.Midfoot.Superior			R.Midfoot.Lateral			R.Toe			L.Heel			L.Midfoot.Lateral			L.Midfoot.Superior			L.Toe			L.Elbow			L.Wrist			R.Elbow			R.Wrist			
		X1	Y1	Z1	X2	Y2	Z2	X3	Y3	Z3	X4	Y4	Z4	X5	Y5	Z5	X6	Y6	Z6	X7	Y7	Z7	X8	Y8	Z8	X9	Y9	Z9	X10	Y10	Z10	X11	Y11	Z11	X12	Y12	Z12	X13	Y13	Z13	X14	Y14	Z14	X15	Y15	Z15	X16	Y16	Z16	X17	Y17	Z17	X18	Y18	Z18	X19	Y19	Z19	X20	Y20	Z20	X21	Y21	Z21	X22	Y22	Z22	X23	Y23	Z23	X24	Y24	Z24	X25	Y25	Z25	X26	Y26	Z26	X27	Y27	Z27	X28	Y28	Z28	X29	Y29	Z29	X30	Y30	Z30	X31	Y31	Z31	X32	Y32	Z32	X33	Y33	Z33	

89	41.350857142857	857.652597636852	1008.040497947704	455.792676105633	1016.795397220202	1436.828782866745	280.465817484388	1134.098259969361	1363.809172502281	430.583873900404	1065.547341392268	1434.057458975360	612.421911562974	1012.830839485104	1492.987940646291	439.168975747292	1084.198692548522	936.768327556931	564.071370040445	1064.998339558937	959.013471858353	291.845712084910	1107.691888728361	727.424650870119	549.807617138937	1018.412811422830	625.806682559535	615.929852202704	1095.603847188179	558.901766082991	544.925905487752	1076.435359124411	451.252944669667	566.872600963032	1133.769408714386	762.417684134237	323.967715398145	1059.631213802142	635.678340784786	265.464631272133	1155.936049448760	568.912779154668	326.850327274737	1166.021947441956	498.844708222114	336.591020253893	1142.080257332440	423.763476086895	330.092473110709	1057.812732242232	304.412134777713	282.940669224125	1116.867087413638	196.731155298761	352.280824058934	992.957183838010	390.529658469617	573.422798522115	868.436701446285	362.821516992140	632.796965731371	845.922240938585	253.876968523045	585.734672812174	641.356458929210	211.006515042634	556.589457754523	799.870851589623	130.891164347152	598.039286290651	689.636984986086	139.572846863949	625.552456417646	849.209968430656	27.742998827794	612.948063856241	997.042106431002	38.130169127574	398.248741094459	1067.432553638741	36.234119977186	314.294117324269	1150.921993852122	97.973087169037	338.603806979479	1278.168398585550	47.392522802086	303.790606812346	904.678521369174	1104.667597644412	168.014346307565	928.430274904112	843.532256609810	182.458538701730	1148.275372811197	1099.348118335739	727.865216038265	1383.503075940233	1156.542332474220	662.707486758401	
90	41.362571428571	856.381890628022	1008.113778726348	452.834880820464	1017.267564547921	1437.514459036466	278.275967755691	1133.288880449028	1364.353128904646	429.334348794542	1063.154732610269	1434.198914819632	610.807783068163	1011.979888969934	1493.581148044636	437.006868722843	1083.082733198912	937.429082115049	561.543679841419	1064.361175203376	959.625232775414	289.509471061458	1112.908425297995	730.134938364427	547.179809438039	1027.596023303326	626.237271618783	613.740936155619	1106.569181749107	561.201466576968	542.244631900276	1089.451524123419	452.245374970814	564.521192821067	1131.886669709143	761.439122045417	321.346117684430	1056.152993892444	635.553289255594	263.556746425822	1151.442708467415	567.897542864082	325.247677657301	1160.681548462765	497.900392462461	335.301592947071	1136.163475912739	422.853034655487	328.992510811860	1050.981314283272	304.089527210424	282.046231939211	1108.805591093018	196.154038640850	351.928874073821	1004.436005733695	392.131831852817	571.310972847575	878.991992645957	368.213133683071	630.679162262826	853.581031461013	259.695155063507	584.464633152839	649.640907688587	226.766747353052	554.633594126395	802.469232680428	136.332905426997	597.563386773130	692.721817032212	152.362295765527	624.220133490349	843.857143305477	26.669111647270	613.481609318920	987.594935228281	38.107616558941	398.162858319161	1057.999785630175	36.132120204480	314.239504832470	1141.656806413281	97.762845682693	338.638998522698	1268.879005655002	46.769356668825	303.834335343764	914.001252389815	1103.202862917246	161.590280195708	951.900258590446	843.488458048208	175.535193645620	1134.593530484223	1095.620160815392	725.244729925663	1374.920066625754	1135.929981288068	665.081282132033	
91	41.374285714286	854.977919458850	1008.154599426706	450.005842545253	1017.571045591106	1438.057506420779	276.217965174902	1132.355689675679	1364.798030418647	428.186732244716	1060.681001348150	1434.221048840896	609.321300031362	1011.079967093657	1494.079824467453	434.994226796360	1081.806757793542	938.010081788850	559.114032908458	1063.587953211778	960.135622828289	287.306337223429	1117.920590256517	733.172047003691	544.433656812744	1036.799202001276	627.092079147707	611.552084639668	1117.391725524986	564.084270416636	539.395012076131	1102.627754512256	453.895284960318	561.937811416066	1129.856428391828	760.495721686811	318.936177324798	1052.617852650039	635.468561555358	261.686355538597	1146.865249068459	566.900271716112	323.681435676558	1155.251354035514	496.952440079617	334.003322399960	1130.172772021069	421.944958238436	327.887652505548	1044.088577393100	303.769367391056	281.136890777376	1100.702574773414	195.582481686015	351.552222224634	1016.311535538935	394.223687957179	568.996853070762	890.138182294719	373.602761598843	628.337541665131	862.243600904027	265.515003282149	582.857863474889	659.329738630772	241.329455173059	552.211216737170	806.631001897551	141.942091689290	596.661069257908	697.594239950928	164.603353468489	622.537392449152	840.632421641445	26.236984127912	613.874160804215	978.163902066276	38.095649103507	398.051437014144	1048.580467933432	36.044660251505	314.161162631327	1132.391022039024	97.574732907227	338.639909119468	1259.591099486592	46.205721747765	303.848265058188	923.810949520744	1101.831079886452	155.208544069070	976.093211878164	844.399116179658	168.848207920784	1120.791438756892	1092.114896048694	722.346643952723	1365.251052282467	1113.982776046234	667.757459603719	
92	41.386000000000	853.472887308207	1008.221224833344	447.286620170876	1017.718353489167	1438.505787893464	274.296916890742	1131.321587327936	1365.187680635616	427.132074379689	1058.161963272718	1434.174419868039	607.949461925577	1010.157924412736	1494.521165705728	433.127654517073	1080.376535016702	938.565597901160	556.802717939841	1062.723143231239	960.587258055247	285.245160940182	1122.650292363698	736.580348246842	541.553289272494	1045.913295367293	628.438764013459	609.366046310895	1127.973187386368	567.599938799687	536.426928221388	1115.864002342920	456.261299138378	559.205040674174	1127.701303241449	759.586830967114	316.717119027468	1048.979809164659	635.418082244220	259.892532310251	1142.170708525879	565.912374789160	322.181463608027	1149.694202187104	496.004155029563	332.758973038373	1124.075997434483	421.055946341723	326.820862830126	1037.113580689880	303.465417582928	280.243906227357	1092.534963123934	195.027179873459	351.175449198440	1028.503620536845	396.822033997898	566.545630525163	901.755624204395	378.920824166359	625.794639752917	871.877317040685	271.212604926867	580.940924269303	670.173239352133	254.197447110262	549.373972366924	812.506581646150	147.541371530620	595.300928960057	704.277381884453	175.827848631056	620.515186136982	840.106069232247	26.624259152561	614.022059287485	968.746428159824	38.093650161087	397.922439575409	1039.171430664810	35.973865700689	314.064340000862	1123.116316641832	97.412614538207	338.611753111260	1250.297455629839	45.718765231572	303.829547594052	934.065628716292	1100.644529322837	148.938942513886	1000.859318363477	846.411308814655	162.467725496126	1107.015027266996	1088.919341248046	719.220291348052	1354.296605616864	1090.930238820818	670.674809824095	
93	41.397714285714	851.902927869197	1008.359153863296	444.662363805910	1017.742828612881	1438.909751173477	272.510835869963	1130.214680240246	1365.561048999854	426.163324827903	1055.628213235421	1434.108215869492	606.674371549755	1009.238065763516	1494.942063120188	431.394308779814	1078.803717649600	939.152935010364	554.648683331587	1061.814464839933	961.018867398931	283.335629473779	1127.041418601234	740.391219435864	538.551046561567	1054.844406820778	630.322686159876	607.193174957057	1138.238289553648	571.774897512708	533.401180412897	1129.069441754838	459.382812701880	556.401952694600	1125.430261769480	758.698276613802	314.675464191590	1045.195939584016	635.397157273311	258.208706916845	1137.318735727850	564.925664305419	320.781636315342	1143.962010121596	495.057526252847	331.624346675484	1117.832025246448	420.202015094130	325.830047139570	1030.030256038681	303.187486438735	279.393461586628	1084.279576835924	194.498728176269	350.819554252325	1040.943302943957	399.920798177141	564.020825037943	913.736274157175	384.088488639126	623.082323259272	882.447108464334	276.658509292230	578.752052422871	681.929363449178	264.959919059475	546.192447314146	820.214723195784	152.946529374759	593.481284244457	712.756827323502	185.617331690475	618.181310589129	842.771727613661	27.907309393403	613.838249223136	959.336585223777	38.101196299712	397.784667519601	1029.767680452736	35.919673852940	313.955705019675	1113.826180417324	97.276195782266	338.561658024742	1240.992049974066	45.312304938979	303.781327038417	944.690866169760	1099.736859342394	142.853515092015	1026.029602442952	849.663900813665	156.459222722654	1093.410898525134	1086.112325905583	715.933361324071	1341.867022786307	1067.054737418809	673.754157454486	
94	41.409428571429	850.302561477946	1008.598016230346	442.122617575367	1017.696833602164	1439.317514866549	270.851999233863	1129.066998088401	1365.947385578106	425.276669979053	1053.105007792570	1434.065107772409	605.475940828155	1008.341894199426	1495.374983810449	429.776695234534	1077.105396981031	939.826068346383	552.703992970563	1060.909963029164	961.463461848960	281.584200759688	1131.058709752979	744.618420440368	535.469143592048	1063.515493844181	632.763942987731	605.052920967608	1148.129927180160	576.609415475512	530.382586725616	1142.160930175290	463.276808287570	553.600469330841	1123.039527831141	757.810153519113	312.807779861921	1041.232298799725	635.404054831392	256.659439254945	1132.267783300657	563.934625175625	319.514068884456	1138.003381309051	494.114333127822	330.640143580378	1111.397816421667	419.397783064693	324.941446549201	1022.809898811594	302.942498965005	278.603973591357	1075.917506528345	194.007369074758	350.497792262083	1053.570019153499	403.493984338210	561.480950144187	925.988262207031	389.018182177009	620.243055690042	893.916748843073	281.724132067912	576.338944642126	694.401655823320	273.326001653304	542.748024678609	829.830085333092	157.976870921204	591.238590194360	722.986300601745	193.639101419036	615.578532958566	848.971708536412	30.032056203469	613.269611127529	949.927093762973	38.118224225287	397.645858383783	1020.363979439059	35.880526089085	313.841798759141	1104.516830525441	97.162515546147	338.496355719578	1231.670903856384	44.980026446981	303.710382402808	955.583902335637	1099.192387569452	137.021803661221	1051.420030521017	854.278083791826	150.881247725323	1080.121693090640	1083.754840266352	712.567967201304	1327.795483680593	1042.681922098767	676.903730498336	
